<svg width="54" height="77" viewBox="0 0 54 77" fill="none" xmlns="http://www.w3.org/2000/svg">
<path d="M11.5 9.5H3C2.44772 9.5 2 9.94772 2 10.5V74C2 74.5523 2.44772 75 3 75H51C51.5523 75 52 74.5523 52 74V39.5M11.5 9.5V3C11.5 2.44772 11.9477 2 12.5 2H40C40.5523 2 41 2.44772 41 3V9.5M11.5 9.5V15C11.5 15.5523 11.9477 16 12.5 16H40C40.5523 16 41 15.5523 41 15V9.5M52 32.5V29M52 23.5V10.5C52 9.94772 51.5523 9.5 51 9.5H41" stroke="#EF4444" stroke-width="4"/>
<path d="M9 34L13.2332 38.2332C13.6463 38.6463 14.324 38.6189 14.7023 38.1738L22.5 29M9 56.5L13.2146 60.7146C13.6344 61.1344 14.3254 61.0981 14.6989 60.6366L22.5 51M31.5 29H44.5M31.5 40H44.5M31.5 52H44.5M31.5 63.5H44.5" stroke="#EF4444" stroke-width="4"/>
</svg>
